<svg xmlns="http://www.w3.org/2000/svg" xmlns:xlink="http://www.w3.org/1999/xlink" width="1907.372" height="795.889" viewBox="0 0 1907.372 795.889">
  <defs>
    <filter id="Path_6" x="161.604" y="0.715" width="356.831" height="387.457" filterUnits="userSpaceOnUse">
      <feOffset dx="2" dy="2" input="SourceAlpha"/>
      <feGaussianBlur result="blur"/>
      <feFlood flood-color="#fff" flood-opacity="0.588"/>
      <feComposite operator="in" in2="blur"/>
      <feComposite in="SourceGraphic"/>
    </filter>
    <filter id="Path_7" x="523.826" y="0" width="1164.786" height="388.172" filterUnits="userSpaceOnUse">
      <feOffset dx="2" dy="2" input="SourceAlpha"/>
      <feGaussianBlur result="blur-2"/>
      <feFlood flood-color="#fff" flood-opacity="0.588"/>
      <feComposite operator="in" in2="blur-2"/>
      <feComposite in="SourceGraphic"/>
    </filter>
    <filter id="Path_8" x="0" y="407.738" width="852.307" height="388.15" filterUnits="userSpaceOnUse">
      <feOffset dx="2" dy="2" input="SourceAlpha"/>
      <feGaussianBlur result="blur-3"/>
      <feFlood flood-color="#fff" flood-opacity="0.588"/>
      <feComposite operator="in" in2="blur-3"/>
      <feComposite in="SourceGraphic"/>
    </filter>
    <filter id="Path_9" x="1179.172" y="407.63" width="323.907" height="388.172" filterUnits="userSpaceOnUse">
      <feOffset dx="2" dy="2" input="SourceAlpha"/>
      <feGaussianBlur result="blur-4"/>
      <feFlood flood-color="#fff" flood-opacity="0.588"/>
      <feComposite operator="in" in2="blur-4"/>
      <feComposite in="SourceGraphic"/>
    </filter>
    <filter id="Path_10" x="1508.383" y="407.738" width="398.988" height="388.063" filterUnits="userSpaceOnUse">
      <feOffset dx="2" dy="2" input="SourceAlpha"/>
      <feGaussianBlur result="blur-5"/>
      <feFlood flood-color="#fff" flood-opacity="0.588"/>
      <feComposite operator="in" in2="blur-5"/>
      <feComposite in="SourceGraphic"/>
    </filter>
    <filter id="Path_11" x="852.713" y="407.738" width="301.627" height="388.106" filterUnits="userSpaceOnUse">
      <feOffset dx="2" dy="2" input="SourceAlpha"/>
      <feGaussianBlur result="blur-6"/>
      <feFlood flood-color="#fff" flood-opacity="0.588"/>
      <feComposite operator="in" in2="blur-6"/>
      <feComposite in="SourceGraphic"/>
    </filter>
  </defs>
  <g id="Dark_Match_logo_red" data-name="Dark Match logo red" transform="translate(0.04)">
    <g transform="matrix(1, 0, 0, 1, -0.04, 0)" filter="url(#Path_6)">
      <path id="Path_6-2" data-name="Path 6" d="M437.393,607.667h87a248.477,248.477,0,0,0,28.718-1.712,100.849,100.849,0,0,0,27.852-7.066,54.184,54.184,0,0,0,21.349-15.974c5.657-6.979,8.518-16.191,8.518-27.548V274.4c0-11.379-2.861-20.547-8.518-27.591A54.426,54.426,0,0,0,580.963,230.9a98.622,98.622,0,0,0-27.852-6.979,253.472,253.472,0,0,0-28.719-1.712H256v7.369a68.468,68.468,0,0,1,17.643,9.992,20.765,20.765,0,0,1,8.518,17.34V572.879a20.569,20.569,0,0,1-8.821,17.339A78.554,78.554,0,0,1,256,600.167v7.391H437.436ZM411.21,327.309h70.507V502.481H411.21Z" transform="translate(-94.4 -221.49)" fill="#af0d1b"/>
    </g>
    <g transform="matrix(1, 0, 0, 1, -0.04, 0)" filter="url(#Path_7)">
      <path id="Path_7-2" data-name="Path 7" d="M1421.744,590.712a74.06,74.06,0,0,1-17.9,9.948v7.391h182.064v-7.391a62.732,62.732,0,0,1-17.947-9.948,21.676,21.676,0,0,1-8.235-17.925v-66.54a100.343,100.343,0,0,0-5.116-29.868,112.713,112.713,0,0,0-14.5-29.845,88.234,88.234,0,0,0-22.477-22.715,49.553,49.553,0,0,0-28.979-9.125,53.77,53.77,0,0,0,28.436-7.954,82.084,82.084,0,0,0,22.455-20.179,100.444,100.444,0,0,0,14.8-27.31,87.116,87.116,0,0,0,5.375-29.3v-72.8a21.676,21.676,0,0,1,8.235-17.9,62.23,62.23,0,0,1,17.947-9.948V221.88H1403.841v7.413a73.339,73.339,0,0,1,17.9,9.948,21.2,21.2,0,0,1,8.822,17.9V380.038h-86.437V257.144a21.436,21.436,0,0,1,8.518-17.9,68.924,68.924,0,0,1,17.644-9.948V221.88H1188.875v7.413a62.1,62.1,0,0,1,17.925,9.948,21.674,21.674,0,0,1,8.236,17.9V572.788a21.673,21.673,0,0,1-8.236,17.925,63.325,63.325,0,0,1-14.761,8.193A60.064,60.064,0,0,1,1177.5,591.3a21.2,21.2,0,0,1-8.822-18.033V483.511a64.893,64.893,0,0,0-5.7-27.309,68.573,68.573,0,0,0-15.323-21.675,70.791,70.791,0,0,0-22.759-14.2,74.078,74.078,0,0,0-27.309-5.137,75.573,75.573,0,0,0,27.006-4.812,76.362,76.362,0,0,0,22.759-13.395,60.5,60.5,0,0,0,15.627-20.721,62.974,62.974,0,0,0,5.7-27.028V286.166A55.053,55.053,0,0,0,1161,256.321a58.647,58.647,0,0,0-20.179-19.615,97.185,97.185,0,0,0-27.591-10.837,137.4,137.4,0,0,0-30.344-3.381H810.961v7.37a77.58,77.58,0,0,1,17.34,9.992,20.482,20.482,0,0,1,8.822,17.339V573.265a20.807,20.807,0,0,1-8.54,17.339,67.533,67.533,0,0,1-13.417,7.564,70.389,70.389,0,0,1-13.286-7.3,20.526,20.526,0,0,1-8.539-17.622v-166.5a68.438,68.438,0,0,0-6.5-26.443,275.678,275.678,0,0,0-16.19-31.276c-6.5-10.837-13.351-21.674-20.721-32.728s-14.283-21.089-20.72-30.344-11.812-17.34-16.169-23.842-6.5-11.292-6.5-13.937a13.328,13.328,0,0,1,6.242-11.661,54.733,54.733,0,0,1,12.506-6.5v-7.976H517.4v7.976a50.154,50.154,0,0,1,12.224,6.5,13.546,13.546,0,0,1,5.939,11.639c0,2.645-2.167,7.3-6.242,13.937s-9.385,14.392-15.606,23.322-13,18.748-20.439,29.564S479,336.646,472.56,347.656a287.294,287.294,0,0,0-16.213,31.84,81.014,81.014,0,0,0-7.066,27.309c-.391,9.1-.5,18.272-.282,27.57s.282,18.7.282,28.177V573.265a20.569,20.569,0,0,1-8.822,17.339,78.66,78.66,0,0,1-17.339,9.948v7.391H604.556v-7.391a71.861,71.861,0,0,1-17.643-9.688,20.613,20.613,0,0,1-8.518-17.621V502.866h85.874v70.4a20.526,20.526,0,0,1-8.54,17.621,71.378,71.378,0,0,1-17.621,9.689v7.391H992.375v-7.391a71.4,71.4,0,0,1-17.622-9.689,20.591,20.591,0,0,1-8.54-17.621V450.523h73.367V573.265a20.613,20.613,0,0,1-8.518,17.621,71.907,71.907,0,0,1-17.643,9.689v7.391H1370.29v-7.391a69.566,69.566,0,0,1-17.644-9.949,21.347,21.347,0,0,1-8.518-17.925V449.959h86.437V572.788a21.09,21.09,0,0,1-8.822,17.925M664.247,432.88H578.374a115.411,115.411,0,0,1,3.381-29.564,122.91,122.91,0,0,1,9.06-23.6,149.616,149.616,0,0,1,13.547-21.674q7.932-10.512,16.949-23.6c4.942,7.586,9.927,14.8,14.869,21.674s9.558,13.741,13.763,20.786a119.736,119.736,0,0,1,10.317,22.151,80.18,80.18,0,0,1,3.988,25.879Zm375.335-52.842H966.215V327.694h73.367Z" transform="translate(100.71 -221.88)" fill="#af0d1b"/>
    </g>
    <g transform="matrix(1, 0, 0, 1, -0.04, 0)" filter="url(#Path_8)">
      <path id="Path_8-2" data-name="Path 8" d="M1005.586,761.341V594.731a68.232,68.232,0,0,0-6.5-26.421,274.125,274.125,0,0,0-16.191-31.3q-9.667-16.234-20.721-32.707t-20.72-30.344Q931.785,460,925.282,450.119c-4.335-6.5-6.5-11.292-6.5-13.937a13.351,13.351,0,0,1,6.242-11.661,55.93,55.93,0,0,1,12.485-6.5V410H729.65v7.955a50.922,50.922,0,0,1,12.224,6.5,13.59,13.59,0,0,1,5.939,11.661c0,2.645-2.168,7.326-6.242,13.937s-9.385,14.392-15.605,23.322-13,18.748-20.439,29.586-14.283,21.674-20.721,32.663a287.332,287.332,0,0,0-16.212,31.84,81.156,81.156,0,0,0-7.066,27.31c-.39,9.125-.5,18.294-.282,27.592s.282,18.683.282,28.177v110.8a20.568,20.568,0,0,1-8.822,17.339,77.7,77.7,0,0,1-13.72,7.868,61.778,61.778,0,0,1-14.153-7.868,21.674,21.674,0,0,1-8.236-17.9V445.156a21.675,21.675,0,0,1,8.214-17.816,62.048,62.048,0,0,1,17.925-9.948V410H461.321v7.391a62.446,62.446,0,0,1,17.946,9.949,21.675,21.675,0,0,1,8.236,17.925l-75.34,112.6-75.383-112.6A21.218,21.218,0,0,1,345.6,427.34a74.5,74.5,0,0,1,17.9-9.949V410H181.44v7.391a62.317,62.317,0,0,1,17.925,9.949,21.674,21.674,0,0,1,8.258,17.925V760.8a21.675,21.675,0,0,1-8.258,17.9,61.811,61.811,0,0,1-17.925,9.948v7.413H363.5v-7.413a73.677,73.677,0,0,1-17.9-9.948,21.089,21.089,0,0,1-8.821-17.9V591.913q19.268,27.83,37.973,55.725t37.41,56.354L487.5,592V760.886a21.674,21.674,0,0,1-8.236,17.9,61.934,61.934,0,0,1-17.946,9.949v7.412H816.78v-7.5a72.494,72.494,0,0,1-17.643-9.666,20.614,20.614,0,0,1-8.518-17.643V690.856h85.874v70.485a20.567,20.567,0,0,1-8.54,17.643,72.383,72.383,0,0,1-17.621,9.667v7.412h181.414v-7.413a71.973,71.973,0,0,1-17.621-9.667,20.57,20.57,0,0,1-8.54-17.643M876.493,620.891H790.619A114.7,114.7,0,0,1,794,591.306a123.964,123.964,0,0,1,9.038-23.6,152.957,152.957,0,0,1,13.568-21.675q7.933-10.512,16.95-23.6c4.942,7.586,9.927,14.8,14.868,21.674s9.559,13.742,13.741,20.786a117.985,117.985,0,0,1,10.339,22.173,80.015,80.015,0,0,1,3.988,25.857Z" transform="translate(-181.44 -2.26)" fill="#af0d1b"/>
    </g>
    <g transform="matrix(1, 0, 0, 1, -0.04, 0)" filter="url(#Path_9)">
      <path id="Path_9-2" data-name="Path 9" d="M1018.018,419.053a94.458,94.458,0,0,0-27.873-7.391,257.785,257.785,0,0,0-28.718-1.712H811.288a258.689,258.689,0,0,0-28.718,1.713,94.486,94.486,0,0,0-27.787,7.391,54.6,54.6,0,0,0-21.067,16.213c-5.484,7.022-8.236,16.191-8.236,27.57v280.38q0,17.079,8.236,27.591A53.92,53.92,0,0,0,754.783,787a93.844,93.844,0,0,0,27.852,7.413,253.368,253.368,0,0,0,28.718,1.712H961.492a252.911,252.911,0,0,0,28.719-1.712A93.835,93.835,0,0,0,1018.083,787a53.708,53.708,0,0,0,21.045-16.191c5.484-7,8.258-16.213,8.258-27.591V655.65h-150.2v7.413a61.773,61.773,0,0,1,17.9,9.948,21.679,21.679,0,0,1,8.236,17.9H854.486V515.179H923.28a21.674,21.674,0,0,1-8.237,17.925,62.845,62.845,0,0,1-17.9,9.948v7.391h150.246V462.835c0-11.379-2.774-20.547-8.258-27.57a54.36,54.36,0,0,0-21.045-16.212" transform="translate(453.69 -2.32)" fill="#af0d1b"/>
    </g>
    <g transform="matrix(1, 0, 0, 1, -0.04, 0)" filter="url(#Path_10)">
      <path id="Path_10-2" data-name="Path 10" d="M1256.692,427.34a69.571,69.571,0,0,1,17.644-9.949V410H1092.9v7.391a69.575,69.575,0,0,1,17.751,9.949,21.5,21.5,0,0,1,8.54,17.925V568.136h-86.567V445.156a21.675,21.675,0,0,1,8.54-17.643,65.041,65.041,0,0,1,17.642-10.23V410H877.37v7.391a69.575,69.575,0,0,1,17.643,9.949,21.479,21.479,0,0,1,8.518,17.925V761.341a20.609,20.609,0,0,1-8.518,17.643,72.458,72.458,0,0,1-17.643,9.667v7.413h181.436v-7.413a77.8,77.8,0,0,1-17.339-9.948,20.57,20.57,0,0,1-8.822-17.34V637.949H1119.1V761.341a20.612,20.612,0,0,1-8.54,17.643,72.487,72.487,0,0,1-17.643,9.667v7.413h181.437v-7.413a72.483,72.483,0,0,1-17.643-9.667,20.613,20.613,0,0,1-8.54-17.643V445.156a21.5,21.5,0,0,1,8.541-17.925" transform="translate(631.01 -2.26)" fill="#af0d1b"/>
    </g>
    <g transform="matrix(1, 0, 0, 1, -0.04, 0)" filter="url(#Path_11)">
      <path id="Path_11-2" data-name="Path 11" d="M850.818,596.226a32.729,32.729,0,0,1-19.7,6H788.894V445.286a21.48,21.48,0,0,1,8.54-17.99,69.327,69.327,0,0,1,17.708-9.97V410H633.077v7.435a62.192,62.192,0,0,1,17.947,9.905,21.677,21.677,0,0,1,8.28,17.99V602.273H617.645a32.708,32.708,0,0,1-19.68-6,50.419,50.419,0,0,1-13.98-15.692H574.86V729.632h9.688a50.217,50.217,0,0,1,14-15.692,32.515,32.515,0,0,1,19.681-6h42.222v52.777a21.436,21.436,0,0,1-8.54,17.968,68.8,68.8,0,0,1-17.708,9.992v7.434H816.269v-7.434a61.781,61.781,0,0,1-17.99-9.992A21.675,21.675,0,0,1,790,760.713v-52.82h41.68a32.513,32.513,0,0,1,19.68,6,50.753,50.753,0,0,1,14,15.692h9.125V580.534h-9.71A50.156,50.156,0,0,1,850.8,596.226" transform="translate(277.85 -2.26)" fill="#af0d1b"/>
    </g>
  </g>
</svg>
