<svg xmlns="http://www.w3.org/2000/svg" width="37.098" height="35.296" viewBox="0 0 37.098 35.296">
  <g id="dm-knife-hover" transform="matrix(0.899, -0.438, 0.438, 0.899, 2195.128, 6893.829)">
    <path id="Path_1031" data-name="Path 1031" d="M1068.981-7109.633l13.4-13.01,2.034,2.035-1.675,1.675,2.6,2.859-4.036,3.65-2.791,2.147-7.9,1.631Z" transform="translate(-19.068 -18.371)" fill="#fff"/>
    <path id="noun-knife-1040418" d="M187.874,160.153l-1.979-2.049-12.119,11.7-.038.034-.1.1-.007.008-2.126,2.052-2.673,2.58.026,0h.009l.079.01h.009a8.024,8.024,0,0,0,.955.049c.106,0,.223,0,.343-.006h.011c.115,0,.236-.009.364-.016l.052,0,.03,0,.052,0v.012a3.269,3.269,0,0,1,2.01.4,1.129,1.129,0,0,0,1.75-.206c.385-.444.562-.87,1.1-1.165a3.248,3.248,0,0,1,1.8-.341,1.63,1.63,0,0,0,1.007-.133,4.931,4.931,0,0,0,.953-.864,8.138,8.138,0,0,1,1.465-1.14q.819-.476,1.68-1.039c.056-.036.116-.072.17-.109l.056-.039q.509-.339,1.031-.712c.1-.071.2-.144.3-.215q.374-.272.754-.561c.065-.05.132-.1.2-.146l-.022.013a52.8,52.8,0,0,0,5.771-5.189l-2.645-2.741.782-.754-.261-.271Zm-3.977,8.566a5.689,5.689,0,0,1-1.367-.077,63.62,63.62,0,0,0,7.05-6.173l.672.7a50.847,50.847,0,0,1-6.355,5.553Zm5.524-6.414a63.033,63.033,0,0,1-7.207,6.286c-.287-.047-.572-.1-.848-.127a3.936,3.936,0,0,0-3.362.85c-.837.816-1.639.611-2.641.24a1.672,1.672,0,0,0-.672-.109l11.2-10.8,1.979,2.048Zm6.425-10.02a2.328,2.328,0,0,0-2.6-.883,4.161,4.161,0,0,0-1.612,1.168s-2.065,1.993-4.95,4.775c-.254.247-.518.5-.786.758l.255.264c.08-.077.733-.655.811-.731l1.96,2.035.364.364a.5.5,0,0,0,.693,0l.974-.94a.6.6,0,0,0,.079-.738l-.024-.034a.6.6,0,0,1,.075-.741l2.007-1.935a2.172,2.172,0,0,0,2.5-.532,2.279,2.279,0,0,0,.26-2.833Zm-1.895,1.856a.6.6,0,1,1,.6-.6A.6.6,0,0,1,193.952,154.141Z" transform="translate(875.724 -7297.72)" stroke="#fff" stroke-width="1"/>
    <path id="Path_1030" data-name="Path 1030" d="M1044.782-6604.521l4.417-4.24,1.192-.5s.175-.2,1.35.274a1.957,1.957,0,0,0,2.136-.55,3.466,3.466,0,0,1,2.2-.8c1.243,0,3.789.293,4.4-.18s.234.384.234.384l-2.325,1.629s-2.188,1.368-2.7,1.8-.9.914-1.134,1.094-.281.382-1.615.405-1.469.361-1.83.688-.813,1.526-1.593,1.5-1.04-.531-1.424-.689a5.276,5.276,0,0,0-2.52-.157,1.323,1.323,0,0,1-1.278-.226Z" transform="translate(0 -519.026)" fill="#af0d1b"/>
  </g>
</svg>
