<svg xmlns="http://www.w3.org/2000/svg" xmlns:xlink="http://www.w3.org/1999/xlink" width="44.026" height="44.025" viewBox="0 0 44.026 44.025">
  <defs>
    <linearGradient id="linear-gradient" x1="0.675" y1="0.186" x2="0.8" y2="0.311" gradientUnits="objectBoundingBox">
      <stop offset="0" stop-color="#d1d1d1"/>
      <stop offset="0.545" stop-color="#696969"/>
      <stop offset="1" stop-color="#696969"/>
    </linearGradient>
  </defs>
  <g id="dm-knife" transform="matrix(0.899, -0.438, 0.438, 0.899, 2198.454, 6893.52)">
    <g id="Group_248" data-name="Group 248" transform="matrix(0.999, 0.052, -0.052, 0.999, 1047.704, -7157.792)">
      <g id="dagger" transform="matrix(0.995, 0.105, -0.105, 0.995, -5.861, 7.781)">
        <path id="trim" d="M0,1.3.865,0,3.458,2.486,2.107,3.3Z" transform="translate(31.564 0.367)" fill="#cb9500"/>
        <path id="handle" d="M0,7.349,1.945,5.89,3.512,3.945l2.215-2L7.619,0,8.861.919,10.05,1.946,9.618,2.7,8,3.945,6.754,5.511l-2,1.837-1.243,1.4L2.594,9.834l-.27-2.485Z" transform="translate(23.783 1.664)" fill="#9a2400"/>
        <path id="gaurd" d="M0,0,2,.918H4.7V3.35L5.89,5.565,3.512,4.376l-2.7-2.7Z" transform="translate(21.406 8.202)" fill="#cb9500"/>
        <path id="blade" d="M.81,21.721,19.127.865,20.8,0l2.161,2.215-.811,1.4L0,22.964Z" transform="translate(2.009 10.471)" fill="url(#linear-gradient)"/>
        <path id="outline" d="M35.173,2.732,32.523.083A.289.289,0,0,0,32.289,0a.286.286,0,0,0-.21.134A17.984,17.984,0,0,1,30.3,2.46a11.337,11.337,0,0,1-1.088.993c-.38.32-.772.651-1.133,1.009-.724.719-1.388,1.464-1.921,2.063-.334.375-.623.7-.825.9a12.059,12.059,0,0,1-1.817,1.326l-2.379-1.27a.285.285,0,0,0-.371.409l1.57,2.364h0a.3.3,0,0,0,.036.044l0,0-1.275.632h0a.285.285,0,0,0-.087.067L.073,34.782a.285.285,0,0,0,.4.4L24.289,14.278a.279.279,0,0,0,.067-.087l.632-1.278a.3.3,0,0,0,.03.023L27.471,14.4a.284.284,0,0,0,.146.041h0a.3.3,0,0,0,.288-.285.284.284,0,0,0-.076-.194l-1.323-2.226a15.17,15.17,0,0,1,1.462-1.97c.2-.2.5-.465.851-.772.551-.485,1.238-1.089,1.917-1.777.349-.353.684-.749,1.009-1.132a12.18,12.18,0,0,1,1.042-1.139,18.027,18.027,0,0,1,2.33-1.773.284.284,0,0,0,.053-.444ZM23.87,13.887,3.427,31.832,21.4,11.42l1.4-.692,1.582,1.582.18.18Zm1.47-1.422-.231-.23-.308-.308L22.794,9.918l-.929-1.4,1.526.814a.015.015,0,0,1,.011,0,.283.283,0,0,0,.107.03l2.4.131-.02,2.232a.284.284,0,0,0,.038.134s0,.01,0,.014l.866,1.458Zm7.07-7.939a12.519,12.519,0,0,0-1.1,1.194c-.317.374-.645.762-.98,1.1-.665.674-1.343,1.27-1.888,1.749-.357.314-.666.585-.878.8h0a11.291,11.291,0,0,0-1.1,1.4l.014-1.542h0a.284.284,0,0,0-.269-.287l-1.785-.1A9.43,9.43,0,0,0,25.734,7.83c.214-.214.507-.544.847-.925.528-.593,1.185-1.329,1.9-2.038.344-.342.728-.665,1.1-.978h0A11.677,11.677,0,0,0,30.724,2.84c.317-.35.6-.69.842-1l1.848,1.848c-.313.243-.654.523-1,.839Zm1.462-1.184-1.959-1.96c.193-.261.347-.484.456-.648L34.52,2.885c-.163.109-.387.264-.648.455Z" transform="translate(0 0)" fill="#fff"/>
      </g>
      <path id="Subtraction_3" data-name="Subtraction 3" d="M-9.732,12.48l2.092-2.068.407-.394.084-.112s.076-.1.739-.147A1.612,1.612,0,0,0-5.322,9.2a2.851,2.851,0,0,1,1.1-.657A11.715,11.715,0,0,0-1.9,7.707c.282-.265.156.087.156.087l-1.1.955s-1.048.843-1.282,1.076-.4.463-.511.566-.118.178-.823.42-.749.38-.914.553-.305.653-.721.783a1.952,1.952,0,0,1-.812.02,4.682,4.682,0,0,0-1.35.391,1.048,1.048,0,0,1-.7.15Z" transform="translate(0 29.874) rotate(-1)" fill="#af0d1b"/>
    </g>
  </g>
</svg>
