<svg xmlns="http://www.w3.org/2000/svg" xmlns:xlink="http://www.w3.org/1999/xlink" width="42.253" height="48.744" viewBox="0 0 42.253 48.744">
  <defs>
    <linearGradient id="linear-gradient" x1="0.675" y1="0.186" x2="0.8" y2="0.311" gradientUnits="objectBoundingBox">
      <stop offset="0" stop-color="#d1d1d1"/>
      <stop offset="0.545" stop-color="#696969"/>
      <stop offset="1" stop-color="#696969"/>
    </linearGradient>
  </defs>
  <g id="dm-knife-hover" transform="matrix(0.899, -0.438, 0.438, 0.899, 2192.674, 6904.007)">
    <g id="Group_248" data-name="Group 248" transform="matrix(0.999, 0.052, -0.052, 0.999, -388.939, -75.86)">
      <g id="dagger" transform="matrix(0.995, 0.105, -0.105, 0.995, -1320.168, -165.195)">
        <path id="trim" d="M1857.658-7189.854l.83-1.245,2.489,2.386-1.3.777Z" transform="translate(-182.365 -2.122)" fill="#cb9500"/>
        <path id="handle" d="M1805.237-7175.31l1.867-1.4,1.5-1.867,2.126-1.918,1.815-1.867,1.193.882,1.141.985-.415.726-1.556,1.193-1.193,1.5-1.919,1.764-1.193,1.348-.882,1.037-.259-2.385Z" transform="translate(-137.412 -9.614)" fill="#9a2400"/>
        <path id="gaurd" d="M1789.22-7138.313l1.919.881h2.593v2.333l1.141,2.126-2.282-1.141-2.593-2.593Z" transform="translate(-123.676 -47.388)" fill="#cb9500"/>
        <path id="blade" d="M1659.31-7102.179l17.579-20.017,1.608-.83,2.074,2.126-.778,1.348-21.261,18.564Z" transform="translate(-11.605 -60.498)" fill="url(#linear-gradient)"/>
        <path id="outline" d="M76.646,45.588,74.1,43.047a.277.277,0,0,0-.225-.078.274.274,0,0,0-.2.128,17.26,17.26,0,0,1-1.709,2.231,10.881,10.881,0,0,1-1.044.953c-.364.307-.741.625-1.088.969-.695.69-1.332,1.405-1.844,1.98-.321.36-.6.671-.792.865a11.574,11.574,0,0,1-1.744,1.273l-2.283-1.219a.273.273,0,0,0-.356.392l1.507,2.269h0a.287.287,0,0,0,.035.042l0,0-1.223.606h0a.274.274,0,0,0-.083.064l-20.1,22.823a.273.273,0,0,0,.386.386L66.2,56.67a.268.268,0,0,0,.064-.084l.607-1.227a.292.292,0,0,0,.029.022l2.354,1.407a.273.273,0,0,0,.14.039h0a.283.283,0,0,0,.277-.273.273.273,0,0,0-.073-.187l-1.269-2.137a14.56,14.56,0,0,1,1.4-1.89c.191-.191.481-.446.817-.741.529-.465,1.188-1.045,1.84-1.705.335-.339.656-.719.968-1.086a11.688,11.688,0,0,1,1-1.093,17.3,17.3,0,0,1,2.237-1.7.273.273,0,0,0,.051-.426ZM65.8,56.294,46.178,73.517l17.252-19.59,1.339-.664,1.519,1.519.173.173Zm1.411-1.365-.222-.221-.3-.3-1.927-1.927-.892-1.343,1.464.782a.014.014,0,0,1,.011,0,.271.271,0,0,0,.1.029l2.3.125-.019,2.143a.272.272,0,0,0,.036.129s0,.009,0,.013l.831,1.4Zm6.785-7.619a12.014,12.014,0,0,0-1.052,1.146c-.3.359-.619.731-.94,1.055-.638.647-1.289,1.219-1.812,1.679-.343.3-.639.562-.843.765h0A10.836,10.836,0,0,0,68.291,53.3l.013-1.48h0a.273.273,0,0,0-.258-.276l-1.713-.093a9.051,9.051,0,0,0,1.254-.974c.205-.206.487-.522.813-.888.507-.569,1.137-1.276,1.822-1.956.331-.328.7-.638,1.055-.939h0a11.207,11.207,0,0,0,1.1-1.006c.3-.336.574-.662.808-.961l1.774,1.774c-.3.233-.628.5-.964.805Zm1.4-1.137-1.881-1.881c.185-.25.333-.465.437-.622l2.065,2.065c-.156.1-.371.253-.622.437Z" transform="translate(1602.111 -7236.539)" fill="#fff"/>
      </g>
      <path id="Subtraction_3" data-name="Subtraction 3" d="M-.215,8.58,1.792,6.595l.391-.378.081-.107s.073-.094.709-.141a1.547,1.547,0,0,0,1.044-.538A2.736,2.736,0,0,1,5.076,4.8,11.244,11.244,0,0,0,7.3,4c.271-.254.15.084.15.084L6.394,5s-1.006.809-1.231,1.033-.384.445-.49.543-.113.17-.79.4-.719.364-.877.531-.293.627-.692.752a1.873,1.873,0,0,1-.78.02,4.493,4.493,0,0,0-1.3.376A1,1,0,0,1-.43,8.8Z" transform="translate(1064.314 -7122.651) rotate(-1)" fill="#af0d1b"/>
    </g>
    <path id="Path_1039" data-name="Path 1039" d="M1049.2-7120.117a6.675,6.675,0,0,0,.938,2.346c.805,1.326.346,2.714-.938,2.324S1049.2-7120.117,1049.2-7120.117Z" transform="translate(-3423.804 -1481.311) rotate(30)" fill="#af0d1b"/>
  </g>
</svg>
