<svg xmlns="http://www.w3.org/2000/svg" xmlns:xlink="http://www.w3.org/1999/xlink" width="35.804" height="43.452" viewBox="0 0 35.804 43.452">
  <defs>
    <linearGradient id="linear-gradient" x1="0.675" y1="0.186" x2="0.8" y2="0.311" gradientUnits="objectBoundingBox">
      <stop offset="0" stop-color="#d1d1d1"/>
      <stop offset="0.545" stop-color="#696969"/>
      <stop offset="1" stop-color="#696969"/>
    </linearGradient>
  </defs>
  <g id="dm-knife-stab" transform="translate(3792.607 6161.297) rotate(-40)">
    <g id="dagger" transform="translate(1044.165 -7144.636) rotate(-3)">
      <path id="trim" d="M0,1.245.83,0,3.319,2.386l-1.3.777Z" transform="translate(21.399 0.352)" fill="#cb9500"/>
      <path id="handle" d="M0,7.053l1.867-1.4,1.5-1.867L5.5,1.867,7.312,0,8.5.882l1.141.985-.415.726L7.675,3.786l-1.193,1.5L4.563,7.053,3.371,8.4,2.489,9.438,2.23,7.053Z" transform="translate(13.932 1.597)" fill="#9a2400"/>
      <path id="gaurd" d="M0,0,1.919.881H4.511V3.215L5.652,5.341,3.371,4.2.778,1.607Z" transform="translate(11.65 7.871)" fill="#cb9500"/>
      <path id="blade" d="M.464,12.622,10.584.83,12.192,0l2.074,2.126-.778,1.348L0,14.915Z" transform="translate(0.807 10.049)" fill="url(#linear-gradient)"/>
      <path id="outline" d="M24.863,2.622,22.32.08A.277.277,0,0,0,22.1,0a.274.274,0,0,0-.2.128,17.26,17.26,0,0,1-1.709,2.231,10.881,10.881,0,0,1-1.044.953c-.364.307-.741.625-1.088.969-.695.69-1.332,1.405-1.844,1.98-.321.36-.6.671-.792.865A11.574,11.574,0,0,1,13.674,8.4L11.392,7.182a.273.273,0,0,0-.356.392l1.507,2.269h0a.287.287,0,0,0,.035.042l0,0-1.223.606h0a.274.274,0,0,0-.083.064C2.428,20.6,1.067,23.35.175,25.2c-.9,1.71,1.337-.166,14.242-11.5a.268.268,0,0,0,.064-.084l.607-1.227a.292.292,0,0,0,.029.022l2.354,1.407a.273.273,0,0,0,.14.039h0a.283.283,0,0,0,.277-.273.273.273,0,0,0-.073-.187l-1.269-2.137a14.56,14.56,0,0,1,1.4-1.89c.191-.191.481-.446.817-.741.529-.465,1.188-1.045,1.84-1.705.335-.339.656-.719.968-1.086a11.688,11.688,0,0,1,1-1.093,17.3,17.3,0,0,1,2.237-1.7.273.273,0,0,0,.051-.426ZM14.015,13.328.878,25.094l-.078.07.533-1.206-.262-1L11.648,10.96l1.339-.664,1.519,1.519.173.173Zm1.411-1.365-.222-.221-.3-.3L12.982,9.519,12.09,8.176l1.464.782a.014.014,0,0,1,.011,0,.271.271,0,0,0,.1.029l2.3.125-.019,2.143a.272.272,0,0,0,.036.129s0,.009,0,.013l.831,1.4Zm6.785-7.619A12.014,12.014,0,0,0,21.16,5.49c-.3.359-.619.731-.94,1.055-.638.647-1.289,1.219-1.812,1.679-.343.3-.639.562-.843.765h0a10.836,10.836,0,0,0-1.057,1.348l.013-1.48h0a.273.273,0,0,0-.258-.276L14.55,8.489A9.051,9.051,0,0,0,15.8,7.514c.205-.206.487-.522.813-.888.507-.569,1.137-1.276,1.822-1.956.331-.328.7-.638,1.055-.939h0a11.207,11.207,0,0,0,1.1-1.006c.3-.336.574-.662.808-.961l1.774,1.774c-.3.233-.628.5-.964.805Zm1.4-1.137L21.734,1.326c.185-.25.333-.465.437-.622l2.065,2.065c-.156.1-.371.253-.622.437Z" transform="translate(0 0)" fill="#fff"/>
    </g>
    <path id="Subtraction_1" data-name="Subtraction 1" d="M3.823,7.082h0L0,3.365a5.552,5.552,0,0,1,.955-.159,2.793,2.793,0,0,0,1.654-.77c.027-.024.048-.044.065-.057L2.7,2.357a5.006,5.006,0,0,1,1.723-.939c.265-.086.607-.188.968-.3A12.2,12.2,0,0,0,8.064.144.521.521,0,0,1,8.306,0a.04.04,0,0,1,.036.018C8.38.074,8.305.246,8.3.253L6.541,1.621c-.017.012-1.679,1.217-2.05,1.544-.207.183-.385.365-.527.512-.117.121-.218.224-.3.29-.053.044.011.319.1.7.175.76.44,1.908.06,2.414Z" transform="translate(1046.572 -7125.923) rotate(-13)" fill="#af0d1b"/>
    <path id="noun-blood-dripping-4992455" d="M0,0C0,1.383.8.36,2.506,2.229a3.944,3.944,0,0,1,.472,1.639c-.009.767.184,1.532.119,2.3a.843.843,0,0,0,.073.58.361.361,0,0,0,.136.185.357.357,0,0,1,.186.253A5.413,5.413,0,0,1,3.657,8.7c-.019,1.4-.05,1.286-.085,2.688-.01.394-.056.787-.073,1.182a3.32,3.32,0,0,0,.026.557.246.246,0,0,0,.263.232.292.292,0,0,0,.3-.234,1.64,1.64,0,0,0,.034-.48,3.623,3.623,0,0,1-.062-1.166,1.521,1.521,0,0,1,.24-.9A.728.728,0,0,0,4.345,10c-.082-.441-.2-.879-.235-1.324a12.8,12.8,0,0,1-.024-2.636c.092-.757-.173-1.218-.106-1.978a.206.206,0,0,1,.081-.143.38.38,0,0,0,.2-.342V3.574a.174.174,0,0,1,.247-.147l.008,0a.461.461,0,0,1,.266.416c0,.708.008,1.417.019,2.125a8.186,8.186,0,0,0,.129,1.186.358.358,0,0,0,.311.151.2.2,0,0,0,.2-.2v-3.9a.2.2,0,0,1,.172-.2.2.2,0,0,1,.222.2v3.74c0,.186,0,.373,0,.559-.01.566-.032,1.131-.054,1.7-.007.181-.041.362-.041.543a.3.3,0,0,0,.306.346.333.333,0,0,0,.388-.331,1.333,1.333,0,0,0,0-.242c-.024-.241-.076-.482-.078-.723,0-.476.016-.952.035-1.427a.316.316,0,0,1,.087-.2c.288-.274.3-.4.056-.713a.633.633,0,0,1-.154-.414c.008-.461,0-.618.024-1.078a.85.85,0,0,1,.026-.168.185.185,0,0,0,.077-.152c0-.027,0-.053,0-.08l.008-.018a.327.327,0,0,1,.187-.169h0a.088.088,0,0,1,.111.086c-.006.793-.027,1.586-.043,2.379-.006.308-.051.617-.038.924a2.125,2.125,0,0,0,.141.629A.328.328,0,0,0,7.28,8.6a.314.314,0,0,0,.28-.3,4.451,4.451,0,0,0,.029-.724c-.023-.454-.093-.907-.1-1.36,0-.064,0-.129,0-.193a.192.192,0,0,1-.016-.076V4.791q0-.342-.008-.685h.008v-1.6a.356.356,0,0,1,.119-.271c.546-.47.338,2.8.338,2.8a3.667,3.667,0,0,0,.082,1.29.454.454,0,0,0,.463.189.336.336,0,0,0,.337-.273c.021-.18,0-2.208-.019-3.075a.087.087,0,0,1,.068-.084h0a.077.077,0,0,1,.091.066c.021.166.068,1.462.078,1.682a12.722,12.722,0,0,1,.105,2.432,9.685,9.685,0,0,0-.071,1.862.971.971,0,0,0,.123.347c.064.128.166.238.221.369.2.483-.014,1,.029,1.517a.309.309,0,0,0,.015.075.27.27,0,0,0,.524-.107c-.022-.434-.042-.867-.068-1.3a.92.92,0,0,1,.2-.644.642.642,0,0,0,.115-.36c0-.252-.161-2.092-.161-2.1,0-.25.132-.426.318-.445a.44.44,0,0,1,.427.347c.027.126,0,.906.008,1.164a.313.313,0,0,0,.372.342.323.323,0,0,0,.315-.267,1.5,1.5,0,0,0,.041-.434c-.037-.438-.2-1.967-.216-2.447-.009-.244.049-.3.284-.288a.246.246,0,0,0,.253-.143.577.577,0,0,0-.01-.592,1.645,1.645,0,0,1-.243-.707.89.89,0,0,1,.139-.645,1.525,1.525,0,0,1,.344-.255l0,0a.815.815,0,0,1,.267-.042c.142,0,.49.521.542.7a2.061,2.061,0,0,1,.142.839.315.315,0,0,0,.353.326c.484-.015.211-1.626.331-2.415.03-.443.07-.938.117-1.4.3-.5.413.694.763-.082-.012.045.017.308,0-.48Z" transform="translate(1043.09 -7128.463) rotate(40)" fill="#af0d1b"/>
  </g>
</svg>
