<svg xmlns="http://www.w3.org/2000/svg" width="33.646" height="43.104" viewBox="0 0 33.646 43.104">
  <g id="dm-knife-stab" transform="translate(3792.946 6162.623) rotate(-40)">
    <path id="Path_1031" data-name="Path 1031" d="M1068.981-7109.434l13.6-13.209,2.065,2.065-1.7,1.7,2.643,2.9-4.1,3.705-2.833,2.181-8.021,1.656Z" transform="translate(-21.983 -18.288)" fill="#fff"/>
    <path id="Subtraction_2" data-name="Subtraction 2" d="M4.271,22.366h0c-.085,0-.169,0-.234-.009L0,18.97l.015-.015.025-.024,0,0,0,0,.1-.1.024-.02.016-.014L12.49,6.917,12.72,6.7l.568-.549C16.217,3.322,18.314,1.3,18.314,1.3l.16-.154,0,0A3.724,3.724,0,0,1,19.951.112a2.182,2.182,0,0,1,.7-.112A2.388,2.388,0,0,1,22.6,1.009a2.314,2.314,0,0,1-.264,2.877,2.3,2.3,0,0,1-1.644.737,2.178,2.178,0,0,1-.891-.2L17.757,6.391a.607.607,0,0,0-.077.751l.024.035a.611.611,0,0,1-.081.75l-.989.954a.5.5,0,0,1-.352.141.494.494,0,0,1-.352-.144l-.369-.369-1.99-2.066c-.042.04-.242.219-.435.393l-.005,0c-.177.158-.344.308-.383.345L14.5,9l.8-.765.265.275-.794.766,2.686,2.783a53.942,53.942,0,0,1-5.861,5.269l.009,0,.013-.008-.1.077,0,0-.092.068c-.256.195-.514.386-.766.569l-.127.092,0,0h0l-.171.124c-.364.259-.717.5-1.047.722l-.019.013,0,0-.035.024-.114.074-.058.037c-.564.371-1.138.726-1.705,1.055a8.021,8.021,0,0,0-1.487,1.158l-.121.128,0,0a4.213,4.213,0,0,1-.842.745A1.174,1.174,0,0,1,4.271,22.366ZM1.191,18.431a1.7,1.7,0,0,1,.606.113,4.072,4.072,0,0,0,1.384.33,1.784,1.784,0,0,0,1.3-.574,3.476,3.476,0,0,1,2.561-.916,7.547,7.547,0,0,1,.853.052c.251.029.5.07.768.114l.094.015a64.267,64.267,0,0,0,7.318-6.383L14.49,9.542,12.48,7.463,1.113,18.433h.077ZM16.233,11.35a64.856,64.856,0,0,1-7.158,6.267,7.17,7.17,0,0,0,1.042.094c.12,0,.236-.005.346-.015a52.019,52.019,0,0,0,6.452-5.638l-.682-.707h0Zm4.439-9.677a.61.61,0,1,0,.612.612A.611.611,0,0,0,20.672,1.673Z" transform="translate(1046.393 -7146.429)" stroke="#fff" stroke-width="1"/>
    <path id="Subtraction_1" data-name="Subtraction 1" d="M4.293,5.513h0L0,1.911l1.162-.488s.046-.043.194-.043a3.453,3.453,0,0,1,1.177.32,1.851,1.851,0,0,0,.694.142,2.084,2.084,0,0,0,1.387-.624c.037-.033.066-.059.088-.075l.036-.028a3.483,3.483,0,0,1,2.2-.787c.322,0,.734.02,1.17.04.5.024,1.069.051,1.581.051A3.2,3.2,0,0,0,11.4.144.559.559,0,0,1,11.675,0a.067.067,0,0,1,.06.03c.073.111-.094.5-.1.5L9.278,2.189c-.022.014-2.232,1.4-2.738,1.825a9.853,9.853,0,0,0-.736.709,4.455,4.455,0,0,1-.415.4c-.031.023-.058.047-.085.07-.158.136-.306.264-1.011.318Z" transform="translate(1046.32 -7129.431)" fill="#af0d1b"/>
    <path id="noun-blood-dripping-4992455" d="M0,0C0,1.383.8.36,2.506,2.229a3.944,3.944,0,0,1,.472,1.639c-.009.767.184,1.532.119,2.3a.843.843,0,0,0,.073.58.361.361,0,0,0,.136.185.357.357,0,0,1,.186.253A5.413,5.413,0,0,1,3.657,8.7c-.019,1.4-.05,1.286-.085,2.688-.01.394-.056.787-.073,1.182a3.32,3.32,0,0,0,.026.557.246.246,0,0,0,.263.232.292.292,0,0,0,.3-.234,1.64,1.64,0,0,0,.034-.48,3.623,3.623,0,0,1-.062-1.166,1.521,1.521,0,0,1,.24-.9A.728.728,0,0,0,4.345,10c-.082-.441-.2-.879-.235-1.324a12.8,12.8,0,0,1-.024-2.636c.092-.757-.173-1.218-.106-1.978a.206.206,0,0,1,.081-.143.38.38,0,0,0,.2-.342V3.574a.174.174,0,0,1,.247-.147l.008,0a.461.461,0,0,1,.266.416c0,.708.008,1.417.019,2.125a8.186,8.186,0,0,0,.129,1.186.358.358,0,0,0,.311.151.2.2,0,0,0,.2-.2v-3.9a.2.2,0,0,1,.172-.2.2.2,0,0,1,.222.2v3.74c0,.186,0,.373,0,.559-.01.566-.032,1.131-.054,1.7-.007.181-.041.362-.041.543a.3.3,0,0,0,.306.346.333.333,0,0,0,.388-.331,1.333,1.333,0,0,0,0-.242c-.024-.241-.076-.482-.078-.723,0-.476.016-.952.035-1.427a.316.316,0,0,1,.087-.2c.288-.274.3-.4.056-.713a.633.633,0,0,1-.154-.414c.008-.461,0-.618.024-1.078a.85.85,0,0,1,.026-.168.185.185,0,0,0,.077-.152c0-.027,0-.053,0-.08l.008-.018a.327.327,0,0,1,.187-.169h0a.088.088,0,0,1,.111.086c-.006.793-.027,1.586-.043,2.379-.006.308-.051.617-.038.924a2.125,2.125,0,0,0,.141.629A.328.328,0,0,0,7.28,8.6a.314.314,0,0,0,.28-.3,4.451,4.451,0,0,0,.029-.724c-.023-.454-.093-.907-.1-1.36,0-.064,0-.129,0-.193a.192.192,0,0,1-.016-.076V4.791q0-.342-.008-.685h.008v-1.6a.356.356,0,0,1,.119-.271c.546-.47.338,2.8.338,2.8a3.667,3.667,0,0,0,.082,1.29.454.454,0,0,0,.463.189.336.336,0,0,0,.337-.273c.021-.18,0-2.208-.019-3.075a.087.087,0,0,1,.068-.084h0a.077.077,0,0,1,.091.066c.021.166.068,1.462.078,1.682a12.722,12.722,0,0,1,.105,2.432,9.685,9.685,0,0,0-.071,1.862.971.971,0,0,0,.123.347c.064.128.166.238.221.369.2.483-.014,1,.029,1.517a.309.309,0,0,0,.015.075.27.27,0,0,0,.524-.107c-.022-.434-.042-.867-.068-1.3a.92.92,0,0,1,.2-.644.642.642,0,0,0,.115-.36c0-.252-.161-2.092-.161-2.1,0-.25.132-.426.318-.445a.44.44,0,0,1,.427.347c.027.126,0,.906.008,1.164a.313.313,0,0,0,.372.342.323.323,0,0,0,.315-.267,1.5,1.5,0,0,0,.041-.434c-.037-.438-.2-1.967-.216-2.447-.009-.244.049-.3.284-.288a.246.246,0,0,0,.253-.143.577.577,0,0,0-.01-.592,1.645,1.645,0,0,1-.243-.707.89.89,0,0,1,.139-.645,1.525,1.525,0,0,1,.344-.255l0,0a.815.815,0,0,1,.267-.042c.142,0,.49.521.542.7a2.061,2.061,0,0,1,.142.839.315.315,0,0,0,.353.326c.484-.015.211-1.626.331-2.415.03-.443.07-.938.117-1.4.3-.5.413.694.763-.082-.012.045.017.308,0-.48Z" transform="translate(1043.09 -7130.649) rotate(40)" fill="#af0d1b"/>
  </g>
</svg>
